<svg fill="#eee" xmlns="http://www.w3.org/2000/svg"  viewBox="0 0 50 50" width="50px" height="50px"><path d="M 25 2 C 12.316406 2 2 12.316406 2 25 C 2 37.683594 12.316406 48 25 48 C 37.683594 48 48 37.683594 48 25 C 48 12.316406 37.683594 2 25 2 Z M 15.210938 27.460938 L 11.398438 27.460938 L 12.441406 22.644531 L 16.097656 22.644531 C 18.472656 22.644531 19.039063 23.816406 19.039063 24.738281 C 19.039063 26.046875 18.191406 27.460938 15.210938 27.460938 Z M 16.53125 20.214844 L 12.71875 20.214844 L 13.761719 15.398438 L 17.417969 15.398438 C 19.792969 15.398438 20.359375 16.570313 20.359375 17.492188 C 20.359375 18.804688 19.511719 20.214844 16.53125 20.214844 Z M 23.652344 35 L 19.839844 35 L 20.878906 30.183594 L 24.539063 30.183594 C 26.910156 30.183594 27.476563 31.355469 27.476563 32.28125 C 27.476563 33.589844 26.628906 35 23.652344 35 Z M 25.066406 27.460938 L 21.253906 27.460938 L 22.292969 22.644531 L 25.953125 22.644531 C 28.324219 22.644531 28.890625 23.816406 28.890625 24.738281 C 28.890625 26.046875 28.046875 27.460938 25.066406 27.460938 Z M 26.386719 20.214844 L 22.574219 20.214844 L 23.613281 15.398438 L 27.273438 15.398438 C 29.648438 15.398438 30.210938 16.570313 30.210938 17.492188 C 30.210938 18.804688 29.363281 20.214844 26.386719 20.214844 Z M 33.953125 32.066406 L 30.140625 32.066406 L 31.183594 27.25 L 34.839844 27.25 C 37.214844 27.25 37.777344 28.421875 37.777344 29.34375 C 37.777344 30.652344 36.933594 32.066406 33.953125 32.066406 Z M 35.371094 24.519531 L 31.5625 24.519531 L 32.601563 19.703125 L 36.261719 19.703125 C 38.632813 19.703125 39.199219 20.875 39.199219 21.800781 C 39.199219 23.109375 38.351563 24.519531 35.371094 24.519531 Z"/></svg>